<?xml version="1.0" encoding="UTF-8" standalone="no"?>
<svg
   viewBox="0 0 256 256"
   role="img"
   aria-label="Pi-hole Cluster Admin – honeycomb hole"
   version="1.1"
   id="svg108"
   sodipodi:docname="logo-primary.svg"
   inkscape:version="1.2 (dc2aeda, 2022-05-15)"
   xmlns:inkscape="http://www.inkscape.org/namespaces/inkscape"
   xmlns:sodipodi="http://sodipodi.sourceforge.net/DTD/sodipodi-0.dtd"
   xmlns="http://www.w3.org/2000/svg"
   xmlns:svg="http://www.w3.org/2000/svg">
  <defs
     id="defs112" />
  <sodipodi:namedview
     id="namedview110"
     pagecolor="#ffffff"
     bordercolor="#000000"
     borderopacity="0.25"
     inkscape:showpageshadow="2"
     inkscape:pageopacity="0.0"
     inkscape:pagecheckerboard="0"
     inkscape:deskcolor="#d1d1d1"
     showgrid="true"
     inkscape:zoom="2.4726821"
     inkscape:cx="77.850686"
     inkscape:cy="134.46937"
     inkscape:window-width="1728"
     inkscape:window-height="1051"
     inkscape:window-x="0"
     inkscape:window-y="38"
     inkscape:window-maximized="1"
     inkscape:current-layer="g106">
    <inkscape:grid
       type="xygrid"
       id="grid237" />
  </sodipodi:namedview>
  <title
     id="title66">Pi-hole Cluster Admin</title>
  <desc
     id="desc68">Cluster of red hex cells forming a honeycomb with a negative-space center, plus a green leaf accent.</desc>
  <rect
     width="256"
     height="256"
     rx="24"
     fill="none"
     id="rect70" />
  <g
     id="g106">
    <!-- Honeycomb -->
    <g
       fill="#d61c4e"
       stroke="#b3123d"
       stroke-width="4"
       stroke-linejoin="round"
       id="g84"
       transform="matrix(1.45,0,0,1.45,-57.1,-36.790955)">
      <polygon
         points="115,105.48 102,128 76,128 63,105.48 76,82.97 102,82.97 "
         id="polygon72" />
      <polygon
         points="193,105.48 180,128 154,128 141,105.48 154,82.97 180,82.97 "
         id="polygon74" />
      <polygon
         points="115,150.52 102,173.03 76,173.03 63,150.52 76,128 102,128 "
         id="polygon76" />
      <polygon
         points="193,150.52 180,173.03 154,173.03 141,150.52 154,128 180,128 "
         id="polygon78" />
      <polygon
         points="154,82.97 141,105.48 115,105.48 102,82.97 115,60.45 141,60.45 "
         id="polygon80" />
      <polygon
         points="154,173.03 141,195.55 115,195.55 102,173.03 115,150.52 141,150.52 "
         id="polygon82" />
    </g>
    <!-- Leaf accent on top -->
    <g
       transform="rotate(-18,253.6782,-425.81511)"
       id="g90" />
    <!-- Optional subtle node dots around the rim to suggest "cluster" -->
    <g
       fill="#b3123d"
       id="g104"
       transform="matrix(1.45,0,0,1.45,-57.1,-36.790955)">
      <circle
         cx="128"
         cy="64"
         r="3"
         id="circle92" />
      <circle
         cx="88"
         cy="92"
         r="3"
         id="circle94" />
      <circle
         cx="168"
         cy="92"
         r="3"
         id="circle96" />
      <circle
         cx="88"
         cy="164"
         r="3"
         id="circle98" />
      <circle
         cx="168"
         cy="164"
         r="3"
         id="circle100" />
      <circle
         cx="128"
         cy="192"
         r="3"
         id="circle102" />
    </g>
    <ellipse
       style="fill:#00cc00;fill-opacity:1;fill-rule:evenodd;stroke:#000000;stroke-width:0.1914;stroke-linecap:round;stroke-linejoin:round;stroke-dasharray:none"
       id="path3617"
       cx="170.57063"
       cy="36.801735"
       rx="10.875"
       ry="32.625" />
    <ellipse
       style="fill:#00cc00;fill-opacity:1;fill-rule:evenodd;stroke:#000000;stroke-width:0.161766;stroke-linecap:round;stroke-linejoin:round;stroke-dasharray:none"
       id="path3619"
       cx="172.76414"
       cy="-97.993523"
       rx="9.1280031"
       ry="24.679916"
       transform="matrix(0.71585412,0.69824987,-0.78521128,0.61922794,0,0)" />
  </g>
</svg>
